<svg width="450" height="450" viewBox="0 0 450 450" fill="none" xmlns="http://www.w3.org/2000/svg">
<path d="M0 225C0 349.264 100.736 450 225 450C349.264 450 450 349.264 450 225C450 100.736 349.264 0 225 0C100.736 0 0 100.736 0 225Z" fill="#122223"/>
<path d="M84 73.6238C84.0693 73.1521 84.3134 72.7237 84.6839 72.4236C85.0544 72.1235 85.5242 71.9736 86 72.0038H210C210 72.0038 212.81 73.1938 210.6 74.1338C207.53 74.1338 188.38 77.6238 181.4 82.4738C174.42 87.3238 169.95 96.7638 169.95 102.854V241.154C169.95 241.154 169.02 283.704 200 303.794C217.36 314.684 233.36 313.324 240.85 313.324C248.34 313.324 263.85 310.724 267.44 309.194C271.03 307.664 270.25 310.854 270.25 310.854C267.95 311.244 264.64 313.154 260.93 314.044C257.22 314.934 245.36 317.114 238.72 321.964C232.08 326.814 226.85 338.554 226.85 346.604H223.91C223.91 346.604 224.42 336.514 219.44 329.604C216.313 325.086 212.213 321.326 207.44 318.604C204.51 316.684 194.87 316.174 186.06 313.434C177.25 310.694 167.46 307.854 157.78 300.684C148.1 293.514 124.85 271.324 124.85 240.684V103.574C124.613 97.7196 122.593 92.0776 119.06 87.4038C116.17 83.8338 111.57 80.0038 107.57 78.4738C103.57 76.9438 87.66 75.1538 86.29 75.1538C85.444 74.78 84.6691 74.2624 84 73.6238V73.6238Z" fill="#F3FAFC"/>
<path d="M271.32 72.0037H366.32V74.7237C366.32 74.7237 347.77 75.7237 338.41 83.7237C329.05 91.7237 318.84 111.984 318.84 137.724V185.044H316.46V137.854C316.46 137.854 315.95 101.264 300.8 86.6237C285.65 71.9837 271.32 74.8537 271.32 74.8537V72.0037Z" fill="#F3FAFC"/>
<path d="M222.85 363.624H225.85C225.85 363.624 226.74 372.814 229.55 379.194C232.36 385.574 241.17 395.194 243.34 400.644C245.51 406.094 243.08 419.024 234.66 424.004C226.24 428.984 216.91 426.174 212.83 422.084C208.75 417.994 205.29 415.704 205.29 405.234C205.29 394.764 214.87 390.304 218.83 380.474C222.79 370.644 223.06 368.474 222.85 363.624Z" fill="#F3FAFC"/>
</svg>
