<svg xmlns="http://www.w3.org/2000/svg" viewBox="0 0 348.78 432.96"><defs><style>.cls-1{fill:#122223;}.cls-2{fill:#f3fafc;}</style></defs><title>Untitled-1</title><g id="Logo"><rect class="cls-1" width="348.78" height="432.96"/><path class="cls-2" d="M31.54,40.77a1.9,1.9,0,0,1,2-1.62h124s2.81,1.19.6,2.13c-3.07,0-22.22,3.49-29.2,8.34S117.49,63.91,117.49,70v138.3s-.93,42.55,30.05,62.64c17.36,10.89,33.36,9.53,40.85,9.53s23-2.6,26.59-4.13,2.81,1.66,2.81,1.66c-2.3.39-5.61,2.3-9.32,3.19s-15.57,3.07-22.21,7.92-11.87,16.59-11.87,24.64h-2.94s.51-10.09-4.47-17a36.72,36.72,0,0,0-12-11c-2.93-1.92-12.57-2.43-21.38-5.17S115,275,105.32,267.83s-32.93-29.36-32.93-60V70.72A28.74,28.74,0,0,0,66.6,54.55c-2.89-3.57-7.49-7.4-11.49-8.93S35.2,42.3,33.83,42.3A8,8,0,0,1,31.54,40.77Z"/><path class="cls-2" d="M218.86,39.15h95v2.72s-18.55,1-27.91,9-19.57,28.26-19.57,54v47.32H264V105s-.51-36.59-15.66-51.23S218.86,42,218.86,42Z"/><path class="cls-2" d="M170.39,330.77h3s.89,9.19,3.7,15.57,11.62,16,13.79,21.45-.26,18.38-8.68,23.36-17.75,2.17-21.83-1.92-7.54-6.38-7.54-16.85,9.58-14.93,13.54-24.76S170.6,335.62,170.39,330.77Z"/></g></svg>