<svg width="546" height="232" viewBox="0 0 546 232" fill="none" xmlns="http://www.w3.org/2000/svg">
<path d="M235 39.2299V39.81C235 39.81 220.74 40.75 220.74 48.4V89.5899C220.74 89.5899 220.74 104.02 235.62 107.85C235.62 107.85 240.21 109.7 253.49 107.53V108.53C253.49 108.53 239.57 109.46 239.57 118.07H238.68C238.68 118.07 237.47 109.27 228.08 109.27C228.08 109.27 206.45 103.07 206.45 86.41V48.29C206.45 48.29 206.8 40.1199 193.15 40.1199V39.2L235 39.2299Z" fill="#F3FAFC"/>
<path d="M253.7 39.81V39.2H284.38V39.91C284.38 39.91 269.72 41.91 269.38 53.66C269.38 65.7799 269.38 71.83 269.38 71.83H267.81V53.57C267.81 53.57 267 39.66 253.7 39.81Z" fill="#F3FAFC"/>
<path d="M276.49 64.0601C279.3 64.1201 297.87 62.3401 297.87 62.3401V102.1C297.87 102.1 297.3 107.66 305.92 107.66V108.93H276.49V107.59C276.49 107.59 285.17 107.91 285.17 102.36V70.1901C285.17 70.1901 284.09 65.1901 280.17 65.1901H276.53L276.49 64.0601Z" fill="#F3FAFC"/>
<path d="M302.34 67.2501C302.34 67.2501 305.45 63.7401 308.19 62.6801C310.93 61.6201 315.87 62.0001 317.92 63.4001C319.97 64.8001 321.38 66.0001 320.92 69.2501C320.46 72.5001 317.53 73.1901 316.77 73.6101C316.01 74.0301 311.13 74.6101 308.6 72.0201C305.9 69.2301 306.6 66.8101 306.75 66.1001L307.3 64.4401L303.3 66.8901L302.34 67.2501Z" fill="#F3FAFC"/>
<path d="M318.66 35.83V34.46C322.24 35.06 339.77 33.02 339.77 33.02V107.83C336.19 107.32 329.47 109.83 327.34 111.83V40.76C326.58 37.7 325.64 35.83 318.66 35.83Z" fill="#F3FAFC"/>
<path d="M345.64 64.4201C345.64 64.4201 347.43 62.0701 357.81 62.0701C368.19 62.0701 379.51 71.3201 379.51 84.1701C379.51 97.0201 372.36 107.49 360.36 109.36C350.66 110.46 345.64 107.57 345.64 107.57C345.64 107.57 353.55 108.34 357.13 106.46C360.71 104.58 362.41 102.46 364.19 98.6301C365.97 94.8001 366.66 81.5301 365.04 76.7601C363.42 71.9901 362.32 69.9501 361.04 68.4201C359.76 66.8901 357.64 63.8301 345.64 64.4201Z" fill="#F3FAFC"/>
<path d="M398 64.76C397 65.23 391.75 66.76 390.79 70.89V74.89C390.79 74.89 392.39 78.02 393.98 78.4C395.597 78.792 397.283 78.792 398.9 78.4C400.167 77.8288 401.243 76.9055 402 75.74C402.68 73.7312 402.899 71.595 402.64 69.49C402.24 67.76 398.78 64.41 398 64.76Z" fill="#F3FAFC"/>
<path d="M412.13 82.89C412.13 82.89 395.13 81.36 387.62 93.17C386.28 95.34 385.51 103.44 389.28 105.87C392.53 108.93 397.19 109.97 403.58 109.61C409.97 109.25 412.58 107.21 412.58 107.21C412.58 107.21 403.26 107.91 401.21 103.76C399.16 99.61 398.72 93.68 400.38 91.12C402.04 88.56 403.38 85.12 412.13 82.89Z" fill="#F3FAFC"/>
<path d="M403.64 63.1C403.64 63.1 411.94 59.85 423.24 64.83C426.75 66.55 429.87 72.93 430.19 75.17C430.51 77.41 430.19 102.29 430.19 102.29C430.173 103.082 430.372 103.865 430.767 104.552C431.162 105.239 431.737 105.806 432.43 106.19C433.075 106.548 433.786 106.772 434.52 106.847C435.254 106.923 435.995 106.849 436.7 106.63C435.067 108.22 432.915 109.167 430.64 109.3C426.43 109.76 423.49 109.38 422.15 108.74C420.906 108.12 419.852 107.176 419.099 106.007C418.346 104.839 417.921 103.489 417.87 102.1C417.75 98.21 417.87 72.29 417.87 72.29C417.87 72.29 416.47 64.29 408.68 64C406.77 63.55 403.64 63.1 403.64 63.1Z" fill="#F3FAFC"/>
<path d="M132 154.63C131 155.1 125.74 156.68 124.79 160.76V164.76C124.79 164.76 126.38 167.89 127.98 168.27C129.593 168.662 131.277 168.662 132.89 168.27C134.171 167.699 135.259 166.768 136.02 165.59C136.695 163.58 136.914 161.445 136.66 159.34C136.19 157.63 132.73 154.29 132 154.63Z" fill="#F3FAFC"/>
<path d="M146.09 172.76C146.09 172.76 129.09 171.23 121.58 183.04C120.24 185.21 119.47 193.32 123.24 195.74C126.49 198.81 131.15 199.84 137.53 199.48C143.91 199.12 146.53 197.08 146.53 197.08C146.53 197.08 137.21 197.78 135.17 193.63C133.13 189.48 132.68 183.55 134.34 181C136 178.45 137.34 175 146.09 172.76Z" fill="#F3FAFC"/>
<path d="M137.6 153C137.6 153 145.89 149.74 157.19 154.72C160.7 156.44 163.83 162.83 164.19 165.06C164.55 167.29 164.19 192.19 164.19 192.19C164.173 192.98 164.372 193.759 164.765 194.444C165.158 195.13 165.73 195.695 166.42 196.08C167.067 196.438 167.779 196.663 168.514 196.74C169.25 196.817 169.993 196.746 170.7 196.53C169.064 198.114 166.914 199.058 164.64 199.19C160.42 199.65 157.49 199.27 156.15 198.63C154.906 198.012 153.852 197.07 153.099 195.903C152.346 194.736 151.921 193.388 151.87 192C151.74 188.1 151.87 162.19 151.87 162.19C151.87 162.19 150.47 154.19 142.68 153.89C140.72 153.42 137.6 153 137.6 153Z" fill="#F3FAFC"/>
<path d="M442.19 64.1901C444.04 64.3801 462.62 62.0601 462.62 62.0601V102.68C462.751 103.513 463.096 104.298 463.622 104.957C464.148 105.616 464.837 106.127 465.62 106.44C467.202 107.119 468.899 107.489 470.62 107.53V108.87H442.19V107.53C442.19 107.53 445.7 107.59 447.19 106.63C448.68 105.67 450.57 103.12 450.57 102.17V70.1701C450.57 70.1701 448.72 65.5101 445.79 65.5101H442.21L442.19 64.1901Z" fill="#F3FAFC"/>
<path d="M469.38 65.1901C469.38 65.1901 471.26 62.1901 480.45 62.0601C489.64 61.9301 492.87 67.5701 493.13 67.7401C494.713 70.1014 495.517 72.8987 495.43 75.7401V101.61C495.43 101.61 495.77 104.68 497.81 106.21C499.85 107.74 504.19 107.66 504.19 107.66V108.87H475.34V107.49C475.34 107.49 479 107.83 480.53 106.38C481.81 105.111 482.569 103.41 482.66 101.61C482.75 100.25 482.66 72.9301 482.66 72.9301C482.66 72.9301 482.83 68.5101 481.04 66.5501C479.25 64.5901 472.45 64.3401 469.38 65.1901Z" fill="#F3FAFC"/>
<path d="M107.6 125.66C107.6 126.17 109.38 151.93 109.38 151.93H108.49C108.49 151.93 105.94 144.04 102.87 139.32C99.8 134.6 93.55 130.51 92.41 130.51C90.5623 130.282 88.7293 129.949 86.92 129.51V128.36C86.92 128.36 96.75 129.76 98.79 129.51C100.83 129.26 103 129.38 104.79 127.72C106.58 126.06 106.7 125.72 106.7 125.72L107.6 125.66Z" fill="#F3FAFC"/>
<path d="M79.51 128.85V128C79.51 128 67.17 129.1 62.58 131.49C57.99 133.88 46.41 142.12 43.51 152.34C43.51 152.34 39 166.81 43.6 177.95C48.2 189.09 53.53 191.32 57 193.61C60.47 195.9 73.43 200.23 79.31 199.32V198.53C79.31 198.53 72.97 197.53 70.42 195.74C67.3835 193.549 64.8185 190.77 62.8773 187.567C60.9361 184.365 59.6584 180.806 59.12 177.1C57.55 166.25 57.55 157.7 59.47 150.17C61.39 142.64 64.19 137.27 67.77 133.95C71.35 130.63 76.7 128.59 79.51 128.85Z" fill="#F3FAFC"/>
<path d="M110.92 170.85H112.32C111 174.93 110 201.1 110 201.1C110 201.1 106.43 196.63 103 196.63C99.57 196.63 86.92 199.44 86.92 199.44V198.17C86.92 198.17 95.85 198.04 100.32 193.06C104.79 188.08 109.89 178.38 110.92 170.85Z" fill="#F3FAFC"/>
<path d="M204.49 124.12C203.91 125.29 205.77 131.02 209.34 132.81C210.738 133.438 212.287 133.651 213.803 133.424C215.319 133.197 216.737 132.54 217.89 131.53C218.89 130.38 219.55 126.17 217 124.12C214.45 122.07 206.66 121.57 204.49 124.12Z" fill="#F3FAFC"/>
<path d="M200.53 124.51C200.53 124.51 198.24 125.66 198.24 129.36V153.13H211V154.41H198.24V191.23C198.24 191.23 198.55 194.85 200.6 195.91C202.65 196.97 207 197.36 207.96 197.36V198.61H175.88V197.27H179.39C179.39 197.27 184.13 196.51 185.66 192.36V154.36H178.05V153.01H185.58V148.47C185.58 148.47 186.87 137.65 190.58 133.01C194.29 128.37 198.87 124.46 200.53 124.51Z" fill="#F3FAFC"/>
<path d="M237.91 123.65H239.47V126.34C239.47 127.05 241.29 129.62 242.47 130.7C244.036 132.103 245.032 134.031 245.27 136.12C245.27 137.75 243.78 139.12 243.22 139.73C242.276 140.6 241.172 141.28 239.97 141.73H237.51C236.364 141.526 235.282 141.056 234.35 140.36C233.06 139.207 232.25 137.612 232.08 135.89C232.08 134.61 233.65 131.8 234.7 130.75C235.75 129.7 237.89 127.43 237.89 126.41C237.89 125.39 237.91 123.65 237.91 123.65Z" fill="#F3FAFC"/>
<path d="M234.36 153.1V152.27C229.168 152.508 224.22 154.541 220.36 158.02C213.79 163.89 211.63 171.61 211.63 175.38C211.63 179.15 212.89 187.57 218.25 192.29C223.568 196.934 230.41 199.458 237.47 199.38C244.55 199.38 250.3 198.29 254.13 196.25C256.46 195.005 258.661 193.531 260.7 191.85L259.87 190.95C258.231 192.639 256.282 193.997 254.13 194.95C249.094 196.991 243.633 197.757 238.23 197.18C232.62 196.35 227.38 189.84 226.74 187.18C225.652 181.482 225.289 175.669 225.66 169.88C226.17 162.88 227.98 158.35 230.3 155.62C232.34 153.66 233 153.49 234.36 153.1Z" fill="#F3FAFC"/>
<path d="M241.68 152.27V153C241.68 153 246.28 155.38 247.13 157.21C247.98 159.04 249.81 170.06 249.13 171.76C247.43 172.27 232.92 172.83 232.58 172.76L231.98 173.15V173.74L261.81 173.15C262.02 171.23 260.92 165.83 259.72 163.15C258.52 160.47 254.92 155.7 249.72 153.87C244.52 152.04 241.68 152.27 241.68 152.27Z" fill="#F3FAFC"/>
</svg>
