<svg id="Text" xmlns="http://www.w3.org/2000/svg" viewBox="0 0 545.72 231.63"><defs><style>.cls-1{fill:#122223;}.cls-2{fill:#f3fafc;}.cls-3{fill:#fff;}</style></defs><title>Untitled-1</title><rect class="cls-1" width="545.72" height="231.63"/><path class="cls-2" d="M235,39.23v.58s-14.26.94-14.26,8.59V89.59s0,14.43,14.88,18.26c0,0,4.59,1.85,17.87-.32v1s-13.92.93-13.92,9.54h-.89s-1.21-8.8-10.6-8.8c0,0-21.63-6.2-21.63-22.86V48.29s.35-8.17-13.3-8.17V39.2Z"/><path class="cls-3" d="M253.7,39.81V39.2h30.68v.71s-14.66,2-15,13.75c0,12.12,0,18.17,0,18.17h-1.57V53.57S267,39.66,253.7,39.81Z"/><path class="cls-3" d="M276.49,64.06c2.81.06,21.38-1.72,21.38-1.72V102.1s-.57,5.56,8.05,5.56v1.27H276.49v-1.34s8.68.32,8.68-5.23V70.19s-1.08-5-5-5h-3.64Z"/><path class="cls-3" d="M302.34,67.25s3.11-3.51,5.85-4.57,7.68-.68,9.73.72,3.46,2.6,3,5.85-3.39,3.94-4.15,4.36-5.64,1-8.17-1.59c-2.7-2.79-2-5.21-1.85-5.92h0l.55-1.66-4,2.45Z"/><path class="cls-3" d="M318.66,35.83V34.46c3.58.6,21.11-1.44,21.11-1.44v74.81c-3.58-.51-10.3,2-12.43,4V40.76C326.58,37.7,325.64,35.83,318.66,35.83Z"/><path class="cls-3" d="M345.64,64.42s1.79-2.35,12.17-2.35,21.7,9.25,21.7,22.1-7.15,23.32-19.15,25.19c-9.7,1.1-14.72-1.79-14.72-1.79s7.91.77,11.49-1.11,5.28-4,7.06-7.83,2.47-17.1.85-21.87-2.72-6.81-4-8.34S357.64,63.83,345.64,64.42Z"/><path class="cls-3" d="M398,64.76c-1,.47-6.25,2-7.21,6.13v4s1.6,3.13,3.19,3.51a10.44,10.44,0,0,0,4.92,0A7.25,7.25,0,0,0,402,75.74a14.12,14.12,0,0,0,.64-6.25C402.24,67.76,398.78,64.41,398,64.76Z"/><path class="cls-3" d="M412.13,82.89s-17-1.53-24.51,10.28c-1.34,2.17-2.11,10.27,1.66,12.7,3.25,3.06,7.91,4.1,14.3,3.74s9-2.4,9-2.4-9.32.7-11.37-3.45-2.49-10.08-.83-12.64S403.38,85.12,412.13,82.89Z"/><path class="cls-3" d="M403.64,63.1s8.3-3.25,19.6,1.73c3.51,1.72,6.63,8.1,6.95,10.34s0,27.12,0,27.12a4.35,4.35,0,0,0,2.24,3.9,5.46,5.46,0,0,0,4.27.44,9.48,9.48,0,0,1-6.06,2.67c-4.21.46-7.15.08-8.49-.56a7.74,7.74,0,0,1-4.28-6.64c-.12-3.89,0-29.81,0-29.81s-1.4-8-9.19-8.29C406.77,63.55,403.64,63.1,403.64,63.1Z"/><path class="cls-3" d="M132,154.63c-1,.47-6.26,2.05-7.21,6.13v4s1.59,3.13,3.19,3.51a10.4,10.4,0,0,0,4.91,0,7.23,7.23,0,0,0,3.13-2.68,14.27,14.27,0,0,0,.64-6.25C136.19,157.63,132.73,154.29,132,154.63Z"/><path class="cls-3" d="M146.09,172.76s-17-1.53-24.51,10.28c-1.34,2.17-2.11,10.28,1.66,12.7,3.25,3.07,7.91,4.1,14.29,3.74s9-2.4,9-2.4-9.32.7-11.36-3.45-2.49-10.08-.83-12.63S137.34,175,146.09,172.76Z"/><path class="cls-3" d="M137.6,153s8.29-3.26,19.59,1.72c3.51,1.72,6.64,8.11,7,10.34s0,27.13,0,27.13a4.35,4.35,0,0,0,2.23,3.89,5.51,5.51,0,0,0,4.28.45,9.5,9.5,0,0,1-6.06,2.66c-4.22.46-7.15.08-8.49-.56a7.72,7.72,0,0,1-4.28-6.63c-.13-3.9,0-29.81,0-29.81s-1.4-8-9.19-8.3C140.72,153.42,137.6,153,137.6,153Z"/><path class="cls-3" d="M442.19,64.19c1.85.19,20.43-2.13,20.43-2.13v40.62a4.86,4.86,0,0,0,3,3.76,13.48,13.48,0,0,0,5,1.09v1.34H442.19v-1.34s3.51.06,5-.9,3.38-3.51,3.38-4.46v-32s-1.85-4.66-4.78-4.66h-3.58Z"/><path class="cls-3" d="M469.38,65.19s1.88-3,11.07-3.13,12.42,5.51,12.68,5.68a13.62,13.62,0,0,1,2.3,8v25.87s.34,3.07,2.38,4.6,6.38,1.45,6.38,1.45v1.21H475.34v-1.38s3.66.34,5.19-1.11a7.23,7.23,0,0,0,2.13-4.77c.09-1.36,0-28.68,0-28.68s.17-4.42-1.62-6.38S472.45,64.34,469.38,65.19Z"/><path class="cls-3" d="M107.6,125.66c0,.51,1.78,26.27,1.78,26.27h-.89s-2.55-7.89-5.62-12.61-9.32-8.81-10.46-8.81a48.38,48.38,0,0,1-5.49-1v-1.15s9.83,1.4,11.87,1.15,4.21-.13,6-1.79,1.91-2,1.91-2Z"/><path class="cls-3" d="M79.51,128.85V128s-12.34,1.1-16.93,3.49-16.17,10.63-19.07,20.85c0,0-4.51,14.47.09,25.61S53.53,191.32,57,193.61s16.43,6.62,22.31,5.71v-.79s-6.34-1-8.89-2.79A27.94,27.94,0,0,1,59.12,177.1c-1.57-10.85-1.57-19.4.35-26.93s4.72-12.9,8.3-16.22S76.7,128.59,79.51,128.85Z"/><path class="cls-3" d="M110.92,170.85h1.4C111,174.93,110,201.1,110,201.1s-3.57-4.47-7-4.47-16.08,2.81-16.08,2.81v-1.27s8.93-.13,13.4-5.11S109.89,178.38,110.92,170.85Z"/><path class="cls-3" d="M204.49,124.12c-.58,1.17,1.28,6.9,4.85,8.69a8,8,0,0,0,8.55-1.28c1-1.15,1.66-5.36-.89-7.41S206.66,121.57,204.49,124.12Z"/><path class="cls-2" d="M200.53,124.51s-2.29,1.15-2.29,4.85v23.77H211v1.28H198.24v36.82s.31,3.62,2.36,4.68,6.4,1.45,7.36,1.45v1.25H175.88v-1.34h3.51s4.74-.76,6.27-4.91v-38h-7.61v-1.35h7.53v-4.54s1.29-10.82,5-15.46S198.87,124.46,200.53,124.51Z"/><path class="cls-2" d="M237.91,123.65h1.56v2.69c0,.71,1.82,3.28,3,4.36a8.58,8.58,0,0,1,2.8,5.42c0,1.63-1.49,3-2.05,3.61a9.93,9.93,0,0,1-3.25,2h-2.46a7.47,7.47,0,0,1-3.16-1.37,6.91,6.91,0,0,1-2.27-4.47c0-1.28,1.57-4.09,2.62-5.14s3.19-3.32,3.19-4.34S237.91,123.65,237.91,123.65Z"/><path class="cls-2" d="M234.36,153.1v-.83a22.45,22.45,0,0,0-14,5.75c-6.57,5.87-8.73,13.59-8.73,17.36s1.26,12.19,6.62,16.91a28.74,28.74,0,0,0,19.22,7.09c7.08,0,12.83-1.09,16.66-3.13a39.88,39.88,0,0,0,6.57-4.4l-.83-.9a18.37,18.37,0,0,1-5.74,4,33,33,0,0,1-15.9,2.23c-5.61-.83-10.85-7.34-11.49-10a68.75,68.75,0,0,1-1.08-17.3c.51-7,2.32-11.53,4.64-14.26C232.34,153.66,233,153.49,234.36,153.1Z"/><path class="cls-2" d="M241.68,152.27V153s4.6,2.38,5.45,4.21,2.68,12.85,2,14.55c-1.7.51-16.21,1.07-16.55,1l-.6.39v.59l29.83-.59c.21-1.92-.89-7.32-2.09-10s-4.8-7.45-10-9.28S241.68,152.27,241.68,152.27Z"/></svg>